<svg xmlns="http://www.w3.org/2000/svg" width="101.733" height="95.218" viewBox="0 0 101.733 95.218"><g transform="translate(-358.761 -187.96)"><path d="M385.971,274.977l-22.76-39.393,22.737-39.409,20.1,37.468,54.443-.014L434.921,187.96l-45.06.015,2.314,3.854,40.44-.015,21.438,37.962-45.7.012-22.286-41.536-27.309,47.333L386.1,282.9l22.26-41.551,45.7-.012L432.639,279.31l-40.441.014-2.31,3.855,45.059-.014,25.546-45.682-54.443.015Z" fill="#433e3e"/><path d="M394.063,219.359,384.7,235.57l9.359,16.211,2.226-3.854-7.135-12.357,7.135-12.356Z" fill="#433e3e"/></g></svg>