<svg xmlns="http://www.w3.org/2000/svg" width="92.05" height="92.05" viewBox="0 0 92.05 92.05"><path d="M66.11,122.043a46.046,46.046,0,1,0,0-65.119A46.1,46.1,0,0,0,66.11,122.043Zm62.394-2.725A41.929,41.929,0,0,1,106,131.009L120.747,75.95,136.9,71.623A42.265,42.265,0,0,1,128.5,119.318ZM111.2,96.686,96.865,82.35,116.449,77.1Zm17.3-37.038a42.111,42.111,0,0,1,6.556,8.478L93.718,79.2l-22.094-22.1A42.246,42.246,0,0,1,128.5,59.648ZM92.444,83.379l.038.145.085-.022,17.483,17.483-8.183,30.539A42.164,42.164,0,0,1,68.776,59.71Z" transform="translate(-52.645 -43.458)" fill="#433e3e"/></svg>